<svg width="1162" height="104" viewBox="0 0 1162 104" fill="none" xmlns="http://www.w3.org/2000/svg" class="svg">
<path d="M33.69 89.04C44.13 89.04 49.35 84.585 49.35 75.675C49.35 71.895 47.37 68.7 43.41 66.09C40.53 64.11 36.57 61.995 31.53 59.745C26.58 57.405 22.845 55.56 20.325 54.21C17.895 52.86 15.06 50.97 11.82 48.54C5.61 43.77 2.505 37.83 2.505 30.72C2.505 23.61 5.25 17.715 10.74 13.035C16.32 8.265 23.835 5.88 33.285 5.88C42.735 5.88 52.815 8.895 63.525 14.925C63.525 21.405 62.85 28.425 61.5 35.985C58.62 36.885 54.345 37.335 48.675 37.335L44.76 21.27C41.43 20.28 37.785 19.785 33.825 19.785C29.865 19.785 26.805 20.64 24.645 22.35C22.485 24.06 21.405 26.625 21.405 30.045C21.405 33.375 23.07 36.39 26.4 39.09C29.82 41.7 33.915 44.13 38.685 46.38C43.455 48.54 46.74 50.07 48.54 50.97C50.34 51.87 52.635 53.22 55.425 55.02C58.215 56.82 60.33 58.53 61.77 60.15C65.46 64.47 67.305 69.285 67.305 74.595C67.305 83.955 64.2 91.155 57.99 96.195C51.78 101.235 43.68 103.755 33.69 103.755C28.38 103.755 22.53 102.855 16.14 101.055C9.84 99.165 4.485 96.78 0.0750002 93.9C0.255 88.41 0.975 80.985 2.235 71.625C5.835 70.905 10.155 70.545 15.195 70.545L18.03 86.745C22.98 88.275 28.2 89.04 33.69 89.04ZM148.878 52.995L148.338 19.245L137.133 15.735L138.213 7.49999H173.313C173.223 7.49999 173.223 7.59 173.313 7.77C173.493 7.95 173.673 8.355 173.853 8.985C174.123 9.525 174.393 10.2 174.663 11.01C175.203 12.45 175.563 14.835 175.743 18.165C171.153 18.885 168.138 19.335 166.698 19.515L166.428 53.805C166.248 70.995 163.098 83.595 156.978 91.605C150.948 99.615 140.598 103.62 125.928 103.62C111.258 103.62 101.043 99.885 95.2827 92.415C89.5227 84.945 86.5527 72.885 86.3727 56.235C86.1927 39.495 86.0127 27.165 85.8327 19.245L74.6277 15.735L75.7077 7.49999H110.808C110.718 7.49999 110.718 7.59 110.808 7.77C110.988 7.95 111.168 8.355 111.348 8.985C111.618 9.525 111.888 10.2 112.158 11.01C112.698 12.45 113.058 14.835 113.238 18.165C108.648 18.885 105.633 19.335 104.193 19.515L103.788 53.805C103.788 63.795 104.328 70.905 105.408 75.135C106.488 79.275 107.838 82.2 109.458 83.91C112.968 87.51 118.548 89.31 126.198 89.31C133.578 89.31 139.158 87.24 142.938 83.1C145.998 79.77 147.843 73.92 148.473 65.55C148.743 62.22 148.878 58.035 148.878 52.995ZM197.735 35.31L193.55 35.445C191.03 35.445 188.42 34.905 185.72 33.825C184.1 26.805 183.29 21.315 183.29 17.355C183.29 13.395 183.47 10.11 183.83 7.49999H245.795C247.955 10.38 249.395 13.935 250.115 18.165L202.595 89.04H231.89L234.86 74.595L239.18 74.46C241.7 74.46 244.31 75 247.01 76.08C248.54 82.83 249.305 88.14 249.305 92.01C249.305 95.88 249.125 99.21 248.765 102H183.56C181.31 99.12 179.87 95.655 179.24 91.605L226.625 20.865H200.975L197.735 35.31ZM323.65 8.985L323.785 10.335C323.785 14.025 323.2 17.175 322.03 19.785C320.86 20.685 319.015 21.405 316.495 21.945L339.04 88.635L351.865 90.255C351.865 93.945 350.83 97.86 348.76 102H315.955L314.74 94.575C318.52 93.135 320.995 92.19 322.165 91.74L316.765 76.485H286.39C283.69 84.495 282.25 88.68 282.07 89.04L291.385 90.255C291.385 92.145 291.025 94.35 290.305 96.87C289.585 99.3 288.91 101.01 288.28 102H255.475L254.26 94.575C258.31 92.865 261.955 91.605 265.195 90.795L287.875 21.405C281.845 20.505 277.3 19.335 274.24 17.895C274.24 15.285 274.645 12.99 275.455 11.01C277.345 10.38 281.755 9.65999 288.685 8.84999C295.705 7.94999 302.365 7.49999 308.665 7.49999C315.055 7.49999 320.05 7.995 323.65 8.985ZM306.235 46.11L302.32 28.29H300.97L296.65 46.92L290.305 63.795H312.85L306.235 46.11ZM386.46 72.84L386.325 89.04L395.64 90.255C395.64 93.945 394.605 97.86 392.535 102H359.73L358.515 94.575C363.555 92.505 367.335 91.2 369.855 90.66C369.855 90.39 369.45 66.585 368.64 19.245L357.435 15.735L358.515 7.49999H393.48C394.92 9.92999 395.775 13.485 396.045 18.165C391.455 18.885 388.44 19.335 387 19.515L386.595 50.025L413.19 19.515L404.685 18.165C404.685 15.465 405.495 11.91 407.115 7.49999H442.215C442.755 10.74 443.115 13.485 443.295 15.735C438.525 17.535 434.79 18.705 432.09 19.245L407.385 51.375L434.655 88.905L446.67 90.12C446.67 93.9 445.635 97.86 443.565 102H424.26L396.45 62.04L386.46 72.84ZM490.461 7.49999C490.371 7.49999 490.371 7.59 490.461 7.77C490.641 7.95 490.821 8.355 491.001 8.985C491.271 9.525 491.541 10.2 491.811 11.01C492.351 12.45 492.711 14.835 492.891 18.165C488.301 18.885 485.286 19.335 483.846 19.515L483.171 89.04L492.486 90.255C492.486 93.945 491.451 97.86 489.381 102H456.576L455.361 94.575C460.401 92.505 464.181 91.2 466.701 90.66C466.611 85.35 466.476 77.88 466.296 68.25C466.026 46.65 465.756 30.315 465.486 19.245L454.281 15.735L455.361 7.49999H490.461ZM525.141 3.315C525.951 6.555 526.356 10.245 526.356 14.385C526.356 18.525 524.601 23.115 521.091 28.155C517.581 33.105 514.296 36.525 511.236 38.415C508.086 37.065 505.521 35.265 503.541 33.015C504.711 29.505 507.276 25.41 511.236 20.73L507.861 20.325C507.051 17.535 506.646 14.7 506.646 11.82C506.646 8.84999 506.781 6.24 507.051 3.99C510.741 3.18 513.486 2.775 515.286 2.775C517.176 2.775 520.461 2.955 525.141 3.315ZM582.328 37.605L582.463 41.79C582.463 48.81 581.923 53.4 580.843 55.56C577.873 56.64 573.733 57.18 568.423 57.18L564.103 43.545C562.933 43.095 561.313 42.87 559.243 42.87C557.173 42.87 555.463 43.5 554.113 44.76C552.853 46.02 552.223 47.505 552.223 49.215C552.223 50.925 552.898 52.5 554.248 53.94C555.598 55.29 556.993 56.37 558.433 57.18C559.873 57.99 561.943 59.07 564.643 60.42C567.433 61.68 569.503 62.67 570.853 63.39C572.293 64.11 574.093 65.19 576.253 66.63C578.503 68.07 580.213 69.42 581.383 70.68C584.263 74.1 585.703 77.835 585.703 81.885C585.703 88.815 583.048 94.17 577.738 97.95C572.518 101.73 566.083 103.62 558.433 103.62C554.383 103.62 549.928 102.9 545.068 101.46C540.298 100.02 536.248 98.085 532.918 95.655C532.918 89.175 533.548 83.145 534.808 77.565C538.408 77.115 541.333 76.89 543.583 76.89C545.833 76.89 547.363 76.935 548.173 77.025L549.793 90.12C552.043 90.93 554.743 91.335 557.893 91.335C561.043 91.335 563.518 90.705 565.318 89.445C567.208 88.185 568.153 86.43 568.153 84.18C568.153 81.84 567.118 79.905 565.048 78.375C562.978 76.845 560.143 75.27 556.543 73.65C552.943 71.94 550.153 70.545 548.173 69.465C546.193 68.295 544.078 66.81 541.828 65.01C537.238 61.5 534.943 57.18 534.943 52.05C534.943 45.66 537.148 40.71 541.558 37.2C546.058 33.6 552.088 31.8 559.648 31.8C567.208 31.8 574.768 33.735 582.328 37.605ZM667.231 7.49999C678.661 7.49999 687.166 9.47999 692.746 13.44C698.326 17.4 701.116 24.6 701.116 35.04C701.116 43.77 698.416 51.06 693.016 56.91C687.616 62.67 678.976 65.55 667.096 65.55C663.226 65.55 660.166 65.505 657.916 65.415L657.646 89.175L667.501 90.255C667.501 94.215 666.466 98.13 664.396 102H631.051L629.836 94.575C634.516 92.685 638.296 91.38 641.176 90.66C641.176 90.39 640.771 66.585 639.961 19.245C638.521 18.885 634.786 17.715 628.756 15.735L629.836 7.49999H667.231ZM664.261 52.725C670.291 52.635 674.971 50.97 678.301 47.73C681.631 44.49 683.296 40.305 683.296 35.175C683.296 30.045 681.811 26.4 678.841 24.24C675.961 21.99 671.416 20.865 665.206 20.865C662.776 20.865 660.481 20.91 658.321 21C658.141 35.22 658.051 45.84 658.051 52.86L664.261 52.725ZM742.048 42.6C738.808 42.6 735.118 43.41 730.978 45.03C729.808 46.83 728.683 50.025 727.603 54.615C726.613 59.115 726.118 63.66 726.118 68.25C726.118 76.71 727.378 82.74 729.898 86.34C732.418 89.85 736.468 91.605 742.048 91.605C747.718 91.605 751.813 89.85 754.333 86.34C756.853 82.74 758.113 76.62 758.113 67.98C758.113 59.25 756.808 52.86 754.198 48.81C751.678 44.67 747.628 42.6 742.048 42.6ZM742.048 31.8C752.578 31.8 761.038 35.04 767.428 41.52C773.908 47.91 777.148 56.865 777.148 68.385C777.148 79.815 773.953 88.545 767.563 94.575C761.173 100.605 752.668 103.62 742.048 103.62C731.428 103.62 722.923 100.605 716.533 94.575C710.233 88.545 707.083 79.815 707.083 68.385C707.083 56.865 710.278 47.91 716.668 41.52C723.058 35.04 731.518 31.8 742.048 31.8ZM818.874 46.38C818.694 45.93 817.794 45.705 816.174 45.705C814.554 45.705 811.764 46.92 807.804 49.35C807.444 66.99 807.219 80.22 807.129 89.04L817.659 90.39C817.659 94.26 816.624 98.13 814.554 102H780.939L779.724 94.575C785.304 92.505 789.354 91.155 791.874 90.525L790.389 46.785C785.709 46.425 781.794 45.75 778.644 44.76L779.589 35.04C782.019 33.96 790.794 33.24 805.914 32.88C806.724 33.69 807.129 35.265 807.129 37.605C815.049 33.735 820.044 31.8 822.114 31.8C824.274 31.8 826.884 32.34 829.944 33.42C833.094 34.41 835.479 35.49 837.099 36.66V38.955C837.099 46.335 836.199 53.175 834.399 59.475C832.869 60.105 830.844 60.42 828.324 60.42C825.804 60.42 823.464 60.285 821.304 60.015C821.034 58.845 820.224 54.3 818.874 46.38ZM856.029 103.62L853.059 103.485C852.519 102.495 851.799 100.65 850.899 97.95C849.999 95.25 849.504 93.225 849.414 91.875C848.964 82.965 848.469 67.53 847.929 45.57H838.479L838.884 37.875C840.954 36.435 843.429 35.13 846.309 33.96L857.244 16.68C860.754 17.04 863.499 17.985 865.479 19.515L865.344 32.34C871.014 32.52 876.279 33.06 881.139 33.96C881.139 37.56 880.014 41.43 877.764 45.57H865.209C864.849 64.47 864.624 78.645 864.534 88.095C868.134 88.455 873.039 89.49 879.249 91.2L879.114 98.22C877.584 99.21 874.164 100.38 868.854 101.73C863.634 102.99 859.359 103.62 856.029 103.62ZM923.482 13.44L921.052 13.305C918.172 13.305 916.147 14.745 914.977 17.625C913.807 20.415 913.177 25.32 913.087 32.34C918.487 32.43 922.717 32.835 925.777 33.555C925.957 33.555 927.037 33.69 929.017 33.96C928.747 38.01 927.667 41.88 925.777 45.57H913.087C912.727 64.83 912.502 79.275 912.412 88.905C921.322 89.535 926.272 90.345 927.262 91.335C927.262 94.305 926.137 97.86 923.887 102H886.357L885.142 94.575C892.162 92.055 896.212 90.705 897.292 90.525L895.807 45.57H886.357L886.762 37.875C889.102 36.255 892.117 35.085 895.807 34.365V30.72C895.807 20.1 897.877 12.36 902.017 7.49999C905.797 3.09 911.287 0.884998 918.487 0.884998C925.777 0.884998 933.472 2.865 941.572 6.82499L941.707 8.985C941.707 13.935 941.077 19.47 939.817 25.59C937.117 26.31 934.642 26.67 932.392 26.67C930.142 26.67 928.477 26.58 927.397 26.4L923.482 13.44ZM971.97 42.6C968.73 42.6 965.04 43.41 960.9 45.03C959.73 46.83 958.605 50.025 957.525 54.615C956.535 59.115 956.04 63.66 956.04 68.25C956.04 76.71 957.3 82.74 959.82 86.34C962.34 89.85 966.39 91.605 971.97 91.605C977.64 91.605 981.735 89.85 984.255 86.34C986.775 82.74 988.035 76.62 988.035 67.98C988.035 59.25 986.73 52.86 984.12 48.81C981.6 44.67 977.55 42.6 971.97 42.6ZM971.97 31.8C982.5 31.8 990.96 35.04 997.35 41.52C1003.83 47.91 1007.07 56.865 1007.07 68.385C1007.07 79.815 1003.87 88.545 997.485 94.575C991.095 100.605 982.59 103.62 971.97 103.62C961.35 103.62 952.845 100.605 946.455 94.575C940.155 88.545 937.005 79.815 937.005 68.385C937.005 56.865 940.2 47.91 946.59 41.52C952.98 35.04 961.44 31.8 971.97 31.8ZM1035.57 1.695C1037.28 1.695 1038.36 1.74 1038.81 1.82999C1038.81 6.50999 1038.22 10.605 1037.05 14.115C1036.96 19.695 1036.83 27.57 1036.65 37.74C1036.29 60.06 1036.02 77.16 1035.84 89.04L1046.37 90.255C1046.37 93.945 1045.33 97.86 1043.26 102H1009.65L1008.43 94.575C1014.01 92.505 1018.06 91.155 1020.58 90.525L1018.02 15.6C1013.79 15.15 1010.23 14.475 1007.35 13.575C1007.35 10.245 1007.67 7.00499 1008.3 3.85499C1013.61 2.41499 1022.7 1.695 1035.57 1.695ZM1076.87 32.88C1078.58 32.88 1079.66 32.925 1080.11 33.015C1080.11 37.425 1079.34 41.52 1077.81 45.3C1077.45 64.74 1077.23 79.32 1077.14 89.04L1087.67 90.255C1087.67 93.945 1086.63 97.86 1084.56 102H1050.95L1049.73 94.575C1055.31 92.505 1059.36 91.155 1061.88 90.525L1060.4 46.785C1055.09 46.245 1051.17 45.57 1048.65 44.76C1048.65 42.51 1048.97 39.27 1049.6 35.04C1054.91 33.6 1064 32.88 1076.87 32.88ZM1076.87 7.365C1077.68 11.415 1078.08 14.52 1078.08 16.68C1078.08 18.75 1077.9 21.09 1077.54 23.7C1073.94 24.51 1070.88 24.915 1068.36 24.915C1065.93 24.915 1062.96 24.78 1059.45 24.51C1058.64 20.46 1058.24 17.4 1058.24 15.33C1058.24 13.17 1058.42 10.785 1058.78 8.17499C1062.38 7.36499 1065.39 6.95999 1067.82 6.95999C1070.34 6.95999 1073.36 7.09499 1076.87 7.365ZM1125.95 42.6C1122.71 42.6 1119.02 43.41 1114.88 45.03C1113.71 46.83 1112.59 50.025 1111.51 54.615C1110.52 59.115 1110.02 63.66 1110.02 68.25C1110.02 76.71 1111.28 82.74 1113.8 86.34C1116.32 89.85 1120.37 91.605 1125.95 91.605C1131.62 91.605 1135.72 89.85 1138.24 86.34C1140.76 82.74 1142.02 76.62 1142.02 67.98C1142.02 59.25 1140.71 52.86 1138.1 48.81C1135.58 44.67 1131.53 42.6 1125.95 42.6ZM1125.95 31.8C1136.48 31.8 1144.94 35.04 1151.33 41.52C1157.81 47.91 1161.05 56.865 1161.05 68.385C1161.05 79.815 1157.86 88.545 1151.47 94.575C1145.08 100.605 1136.57 103.62 1125.95 103.62C1115.33 103.62 1106.83 100.605 1100.44 94.575C1094.14 88.545 1090.99 79.815 1090.99 68.385C1090.99 56.865 1094.18 47.91 1100.57 41.52C1106.96 35.04 1115.42 31.8 1125.95 31.8Z" fill="#ddd"/>
</svg>
